<mxfile host="Electron" agent="Mozilla/5.0 (Windows NT 10.0; Win64; x64) AppleWebKit/537.36 (KHTML, like Gecko) draw.io/28.0.6 Chrome/138.0.7204.100 Electron/37.2.3 Safari/537.36" version="28.0.6">
  <diagram name="Page-1" id="XA7itytMm3QGwKBcnaix">
    <mxGraphModel dx="2076" dy="793" grid="1" gridSize="10" guides="1" tooltips="1" connect="1" arrows="1" fold="1" page="1" pageScale="1" pageWidth="850" pageHeight="1100" math="0" shadow="0">
      <root>
        <mxCell id="0" />
        <mxCell id="1" parent="0" />
        <mxCell id="QCdvcNz9FRodbS2o2hAC-7" value="Crm_cust_info" style="swimlane;fontStyle=0;childLayout=stackLayout;horizontal=1;startSize=30;horizontalStack=0;resizeParent=1;resizeParentMax=0;resizeLast=0;collapsible=1;marginBottom=0;whiteSpace=wrap;html=1;fillColor=#dae8fc;strokeColor=#6c8ebf;" vertex="1" parent="1">
          <mxGeometry x="-515" y="235" width="140" height="90" as="geometry" />
        </mxCell>
        <mxCell id="QCdvcNz9FRodbS2o2hAC-8" value="cst_id" style="text;strokeColor=none;fillColor=none;align=left;verticalAlign=middle;spacingLeft=4;spacingRight=4;overflow=hidden;points=[[0,0.5],[1,0.5]];portConstraint=eastwest;rotatable=0;whiteSpace=wrap;html=1;" vertex="1" parent="QCdvcNz9FRodbS2o2hAC-7">
          <mxGeometry y="30" width="140" height="30" as="geometry" />
        </mxCell>
        <mxCell id="QCdvcNz9FRodbS2o2hAC-28" value="cst_key" style="text;strokeColor=none;fillColor=none;align=left;verticalAlign=middle;spacingLeft=4;spacingRight=4;overflow=hidden;points=[[0,0.5],[1,0.5]];portConstraint=eastwest;rotatable=0;whiteSpace=wrap;html=1;" vertex="1" parent="QCdvcNz9FRodbS2o2hAC-7">
          <mxGeometry y="60" width="140" height="30" as="geometry" />
        </mxCell>
        <mxCell id="QCdvcNz9FRodbS2o2hAC-11" value="Customer information" style="text;html=1;align=center;verticalAlign=middle;whiteSpace=wrap;rounded=0;" vertex="1" parent="1">
          <mxGeometry x="-515" y="195" width="150" height="30" as="geometry" />
        </mxCell>
        <mxCell id="QCdvcNz9FRodbS2o2hAC-14" value="Crm_prd_info" style="swimlane;fontStyle=0;childLayout=stackLayout;horizontal=1;startSize=30;horizontalStack=0;resizeParent=1;resizeParentMax=0;resizeLast=0;collapsible=1;marginBottom=0;whiteSpace=wrap;html=1;fillColor=#dae8fc;strokeColor=#6c8ebf;" vertex="1" parent="1">
          <mxGeometry x="-505" y="375" width="140" height="60" as="geometry" />
        </mxCell>
        <mxCell id="QCdvcNz9FRodbS2o2hAC-15" value="prd_key" style="text;strokeColor=none;fillColor=none;align=left;verticalAlign=middle;spacingLeft=4;spacingRight=4;overflow=hidden;points=[[0,0.5],[1,0.5]];portConstraint=eastwest;rotatable=0;whiteSpace=wrap;html=1;" vertex="1" parent="QCdvcNz9FRodbS2o2hAC-14">
          <mxGeometry y="30" width="140" height="30" as="geometry" />
        </mxCell>
        <mxCell id="QCdvcNz9FRodbS2o2hAC-16" value="Current &amp;amp; history information of products" style="text;html=1;align=center;verticalAlign=middle;whiteSpace=wrap;rounded=0;" vertex="1" parent="1">
          <mxGeometry x="-510" y="345" width="150" height="30" as="geometry" />
        </mxCell>
        <mxCell id="QCdvcNz9FRodbS2o2hAC-17" value="Crm_sales_details" style="swimlane;fontStyle=0;childLayout=stackLayout;horizontal=1;startSize=30;horizontalStack=0;resizeParent=1;resizeParentMax=0;resizeLast=0;collapsible=1;marginBottom=0;whiteSpace=wrap;html=1;fillColor=#dae8fc;strokeColor=#6c8ebf;" vertex="1" parent="1">
          <mxGeometry x="-765" y="295" width="140" height="90" as="geometry" />
        </mxCell>
        <mxCell id="QCdvcNz9FRodbS2o2hAC-20" value="cust_id" style="text;strokeColor=none;fillColor=none;align=left;verticalAlign=middle;spacingLeft=4;spacingRight=4;overflow=hidden;points=[[0,0.5],[1,0.5]];portConstraint=eastwest;rotatable=0;whiteSpace=wrap;html=1;" vertex="1" parent="QCdvcNz9FRodbS2o2hAC-17">
          <mxGeometry y="30" width="140" height="30" as="geometry" />
        </mxCell>
        <mxCell id="QCdvcNz9FRodbS2o2hAC-18" value="prd_key" style="text;strokeColor=none;fillColor=none;align=left;verticalAlign=middle;spacingLeft=4;spacingRight=4;overflow=hidden;points=[[0,0.5],[1,0.5]];portConstraint=eastwest;rotatable=0;whiteSpace=wrap;html=1;" vertex="1" parent="QCdvcNz9FRodbS2o2hAC-17">
          <mxGeometry y="60" width="140" height="30" as="geometry" />
        </mxCell>
        <mxCell id="QCdvcNz9FRodbS2o2hAC-19" value="transactional Records abotu sales and order" style="text;html=1;align=center;verticalAlign=middle;whiteSpace=wrap;rounded=0;" vertex="1" parent="1">
          <mxGeometry x="-770" y="265" width="150" height="30" as="geometry" />
        </mxCell>
        <mxCell id="QCdvcNz9FRodbS2o2hAC-24" style="edgeStyle=orthogonalEdgeStyle;rounded=0;orthogonalLoop=1;jettySize=auto;html=1;entryX=0;entryY=0.5;entryDx=0;entryDy=0;" edge="1" parent="1" source="QCdvcNz9FRodbS2o2hAC-20" target="QCdvcNz9FRodbS2o2hAC-8">
          <mxGeometry relative="1" as="geometry" />
        </mxCell>
        <mxCell id="QCdvcNz9FRodbS2o2hAC-25" style="edgeStyle=orthogonalEdgeStyle;rounded=0;orthogonalLoop=1;jettySize=auto;html=1;entryX=0.003;entryY=0.378;entryDx=0;entryDy=0;entryPerimeter=0;" edge="1" parent="1" source="QCdvcNz9FRodbS2o2hAC-18" target="QCdvcNz9FRodbS2o2hAC-15">
          <mxGeometry relative="1" as="geometry" />
        </mxCell>
        <mxCell id="QCdvcNz9FRodbS2o2hAC-26" value="Erp_cust_az12" style="swimlane;fontStyle=0;childLayout=stackLayout;horizontal=1;startSize=30;horizontalStack=0;resizeParent=1;resizeParentMax=0;resizeLast=0;collapsible=1;marginBottom=0;whiteSpace=wrap;html=1;fillColor=#ffe6cc;strokeColor=#d79b00;" vertex="1" parent="1">
          <mxGeometry x="-260" y="205" width="140" height="60" as="geometry" />
        </mxCell>
        <mxCell id="QCdvcNz9FRodbS2o2hAC-27" value="cid" style="text;strokeColor=none;fillColor=none;align=left;verticalAlign=middle;spacingLeft=4;spacingRight=4;overflow=hidden;points=[[0,0.5],[1,0.5]];portConstraint=eastwest;rotatable=0;whiteSpace=wrap;html=1;" vertex="1" parent="QCdvcNz9FRodbS2o2hAC-26">
          <mxGeometry y="30" width="140" height="30" as="geometry" />
        </mxCell>
        <mxCell id="QCdvcNz9FRodbS2o2hAC-30" value="Extra Customer Information (Birth Date)" style="text;html=1;align=center;verticalAlign=middle;whiteSpace=wrap;rounded=0;" vertex="1" parent="1">
          <mxGeometry x="-270" y="170" width="150" height="30" as="geometry" />
        </mxCell>
        <mxCell id="QCdvcNz9FRodbS2o2hAC-31" value="Erp_loc_a101" style="swimlane;fontStyle=0;childLayout=stackLayout;horizontal=1;startSize=30;horizontalStack=0;resizeParent=1;resizeParentMax=0;resizeLast=0;collapsible=1;marginBottom=0;whiteSpace=wrap;html=1;fillColor=#ffe6cc;strokeColor=#d79b00;" vertex="1" parent="1">
          <mxGeometry x="-240" y="315" width="140" height="60" as="geometry" />
        </mxCell>
        <mxCell id="QCdvcNz9FRodbS2o2hAC-32" value="cid" style="text;strokeColor=none;fillColor=none;align=left;verticalAlign=middle;spacingLeft=4;spacingRight=4;overflow=hidden;points=[[0,0.5],[1,0.5]];portConstraint=eastwest;rotatable=0;whiteSpace=wrap;html=1;" vertex="1" parent="QCdvcNz9FRodbS2o2hAC-31">
          <mxGeometry y="30" width="140" height="30" as="geometry" />
        </mxCell>
        <mxCell id="QCdvcNz9FRodbS2o2hAC-33" value="Loaction of Customers(Country)" style="text;html=1;align=center;verticalAlign=middle;whiteSpace=wrap;rounded=0;" vertex="1" parent="1">
          <mxGeometry x="-250" y="280" width="150" height="30" as="geometry" />
        </mxCell>
        <mxCell id="QCdvcNz9FRodbS2o2hAC-34" style="edgeStyle=orthogonalEdgeStyle;rounded=0;orthogonalLoop=1;jettySize=auto;html=1;entryX=0.964;entryY=0.667;entryDx=0;entryDy=0;entryPerimeter=0;" edge="1" parent="1" source="QCdvcNz9FRodbS2o2hAC-31" target="QCdvcNz9FRodbS2o2hAC-28">
          <mxGeometry relative="1" as="geometry" />
        </mxCell>
        <mxCell id="QCdvcNz9FRodbS2o2hAC-36" style="edgeStyle=orthogonalEdgeStyle;rounded=0;orthogonalLoop=1;jettySize=auto;html=1;entryX=0.979;entryY=0.296;entryDx=0;entryDy=0;entryPerimeter=0;" edge="1" parent="1" source="QCdvcNz9FRodbS2o2hAC-27" target="QCdvcNz9FRodbS2o2hAC-28">
          <mxGeometry relative="1" as="geometry" />
        </mxCell>
        <mxCell id="QCdvcNz9FRodbS2o2hAC-37" value="Erp_px_cat_g1v2" style="swimlane;fontStyle=0;childLayout=stackLayout;horizontal=1;startSize=30;horizontalStack=0;resizeParent=1;resizeParentMax=0;resizeLast=0;collapsible=1;marginBottom=0;whiteSpace=wrap;html=1;fillColor=#ffe6cc;strokeColor=#d79b00;" vertex="1" parent="1">
          <mxGeometry x="-240" y="425" width="140" height="60" as="geometry" />
        </mxCell>
        <mxCell id="QCdvcNz9FRodbS2o2hAC-38" value="id" style="text;strokeColor=none;fillColor=none;align=left;verticalAlign=middle;spacingLeft=4;spacingRight=4;overflow=hidden;points=[[0,0.5],[1,0.5]];portConstraint=eastwest;rotatable=0;whiteSpace=wrap;html=1;" vertex="1" parent="QCdvcNz9FRodbS2o2hAC-37">
          <mxGeometry y="30" width="140" height="30" as="geometry" />
        </mxCell>
        <mxCell id="QCdvcNz9FRodbS2o2hAC-39" value="Product Ctaegiries" style="text;html=1;align=center;verticalAlign=middle;whiteSpace=wrap;rounded=0;" vertex="1" parent="1">
          <mxGeometry x="-250" y="395" width="150" height="30" as="geometry" />
        </mxCell>
        <mxCell id="QCdvcNz9FRodbS2o2hAC-40" style="edgeStyle=orthogonalEdgeStyle;rounded=0;orthogonalLoop=1;jettySize=auto;html=1;entryX=1;entryY=0.5;entryDx=0;entryDy=0;" edge="1" parent="1" source="QCdvcNz9FRodbS2o2hAC-38" target="QCdvcNz9FRodbS2o2hAC-15">
          <mxGeometry relative="1" as="geometry" />
        </mxCell>
        <mxCell id="QCdvcNz9FRodbS2o2hAC-42" value="" style="rounded=1;whiteSpace=wrap;html=1;fillColor=none;dashed=1;" vertex="1" parent="1">
          <mxGeometry x="-810" y="185" width="470" height="290" as="geometry" />
        </mxCell>
        <mxCell id="QCdvcNz9FRodbS2o2hAC-43" value="&lt;font style=&quot;font-size: 27px;&quot;&gt;Crm&lt;/font&gt;" style="text;html=1;align=center;verticalAlign=middle;whiteSpace=wrap;rounded=0;fillColor=#dae8fc;strokeColor=#6c8ebf;" vertex="1" parent="1">
          <mxGeometry x="-625" y="170" width="60" height="30" as="geometry" />
        </mxCell>
        <mxCell id="QCdvcNz9FRodbS2o2hAC-44" value="" style="rounded=1;whiteSpace=wrap;html=1;fillColor=none;dashed=1;" vertex="1" parent="1">
          <mxGeometry x="-285" y="137.5" width="230" height="405" as="geometry" />
        </mxCell>
        <mxCell id="QCdvcNz9FRodbS2o2hAC-45" value="&lt;span style=&quot;font-size: 27px;&quot;&gt;Erp&lt;/span&gt;" style="text;html=1;align=center;verticalAlign=middle;whiteSpace=wrap;rounded=0;fillColor=#ffe6cc;strokeColor=#d79b00;" vertex="1" parent="1">
          <mxGeometry x="-205" y="120" width="60" height="30" as="geometry" />
        </mxCell>
      </root>
    </mxGraphModel>
  </diagram>
</mxfile>
